<?xml version="1.0" standalone="no"?>
<!DOCTYPE svg PUBLIC "-//W3C//DTD SVG 20010904//EN"
 "http://www.w3.org/TR/2001/REC-SVG-20010904/DTD/svg10.dtd">
<svg version="1.0" xmlns="http://www.w3.org/2000/svg"
 width="736.000000pt" height="736.000000pt" viewBox="0 0 736.000000 736.000000"
 preserveAspectRatio="xMidYMid meet">
<metadata>
Created by potrace 1.14, written by Peter Selinger 2001-2017
</metadata>
<g transform="translate(0.000000,736.000000) scale(0.100000,-0.100000)"
fill="#000000" stroke="none">
<path d="M6106 7187 c-189 -118 -582 -388 -683 -469 -72 -58 -188 -147 -258
-198 l-126 -92 -82 35 c-153 66 -314 112 -477 136 -283 43 -306 45 -610 45
-238 0 -328 -3 -410 -17 -58 -9 -143 -21 -190 -27 -361 -46 -815 -182 -1135
-340 -66 -33 -190 -91 -275 -129 -85 -38 -238 -107 -340 -154 -102 -46 -250
-114 -330 -149 -148 -67 -399 -183 -570 -264 -118 -56 -236 -129 -244 -151 -4
-10 14 -51 50 -112 89 -149 514 -779 562 -832 l43 -48 -27 -158 c-25 -149 -27
-180 -30 -543 -3 -379 -5 -407 -44 -645 -35 -215 -63 -484 -64 -610 0 -118 3
-152 23 -220 13 -44 27 -84 31 -90 4 -5 11 -21 15 -35 8 -27 100 -170 135
-210 38 -44 106 -114 139 -143 57 -50 320 -247 346 -259 31 -14 42 -5 27 25
-6 12 -16 42 -22 67 -13 51 -54 170 -69 197 -39 74 -51 125 -51 215 l1 93 26
-65 c22 -54 44 -82 127 -166 114 -113 171 -160 236 -195 25 -13 47 -25 49 -26
7 -5 30 -283 31 -364 l0 -77 -60 -62 c-70 -72 -139 -174 -168 -245 -51 -126
-134 -429 -175 -640 -9 -44 -23 -111 -32 -150 -9 -38 -19 -80 -22 -93 l-5 -22
2191 0 c1205 0 2191 4 2191 8 0 82 -103 550 -140 637 -46 108 -72 155 -147
267 -129 193 -249 296 -411 353 -24 8 -91 19 -148 25 -58 5 -182 25 -276 45
-94 19 -175 35 -179 35 -27 0 4 28 114 101 67 45 143 97 168 115 47 34 69 42
69 25 0 -5 -18 -47 -41 -94 -22 -47 -38 -90 -35 -95 13 -22 288 72 456 156 41
20 93 53 115 72 22 19 51 44 65 55 l24 20 -18 -30 c-10 -16 -29 -44 -42 -62
-13 -17 -24 -36 -24 -42 0 -6 -4 -11 -8 -11 -4 0 -25 -23 -47 -51 -29 -39 -35
-53 -25 -59 12 -8 64 5 85 20 6 4 21 11 35 15 14 4 103 45 198 91 241 117 277
155 363 381 13 35 27 63 32 63 4 0 7 -51 7 -112 -1 -129 -18 -219 -75 -377
-43 -121 -38 -140 23 -97 22 15 61 52 88 84 27 31 63 72 80 92 17 19 43 53 59
75 16 22 37 48 46 57 15 15 73 93 176 238 47 66 108 171 121 209 15 43 15 96
1 123 -6 11 -35 55 -65 97 -61 85 -61 86 -108 159 -28 43 -33 59 -26 81 4 15
11 65 15 112 4 46 11 106 16 132 5 27 13 118 19 204 6 94 16 166 24 182 29 54
45 98 64 176 36 146 72 438 72 585 0 106 15 103 36 -7 14 -75 19 -143 19 -293
0 -195 -3 -224 -52 -522 -14 -87 -23 -164 -19 -173 8 -22 24 -18 32 8 4 12 21
40 39 62 40 50 81 136 101 216 13 52 15 115 11 413 -4 328 -6 360 -31 491 -15
77 -33 181 -41 230 -16 98 -46 238 -70 325 -26 96 -19 96 40 -2 39 -65 208
-306 262 -373 5 -5 34 -46 65 -90 71 -100 247 -315 270 -329 37 -23 29 7 -13
52 -54 56 -156 181 -221 272 -26 36 -62 85 -80 110 -18 24 -51 69 -72 100 -22
30 -53 73 -68 95 -126 176 -248 372 -284 455 -8 19 -19 44 -24 55 -6 11 -27
64 -49 117 -37 95 -38 98 -20 114 24 22 24 51 0 90 -16 27 -21 66 -30 255 -13
249 -30 444 -67 779 -33 298 -88 622 -114 670 -12 22 -36 25 -64 7z m32 -45
c-8 -9 -8 -13 -2 -9 19 11 23 -16 14 -89 -5 -38 -9 -75 -10 -83 0 -8 -7 -11
-20 -8 -11 3 -20 1 -20 -5 0 -5 -4 -6 -10 -3 -5 3 -10 2 -10 -3 0 -8 -79 -52
-95 -52 -7 0 -175 -84 -262 -131 -24 -12 -43 -26 -43 -31 0 -4 -9 -8 -20 -8
-12 0 -44 -15 -73 -33 -29 -18 -69 -41 -89 -52 -21 -11 -38 -23 -38 -27 0 -5
-6 -8 -12 -8 -7 0 -25 -10 -40 -23 -15 -12 -46 -35 -70 -52 -23 -16 -68 -54
-101 -83 -57 -52 -110 -83 -131 -77 -6 2 -23 6 -38 9 -33 7 -38 26 -7 26 11 0
17 4 14 10 -3 5 7 15 22 22 15 7 46 27 68 46 60 50 63 52 75 52 5 0 10 4 10 9
0 5 13 17 30 28 16 10 73 54 127 98 109 89 244 189 339 250 34 22 94 62 133
88 40 28 76 45 82 41 7 -4 9 -3 6 3 -8 13 101 85 116 76 6 -3 7 -1 3 5 -4 7
-2 12 4 12 6 0 18 7 27 15 19 20 38 9 21 -13z m-1918 -547 c63 -8 126 -19 140
-24 14 -5 57 -12 96 -15 39 -3 84 -10 100 -15 16 -5 65 -17 109 -27 44 -9 85
-21 90 -27 7 -6 0 -7 -20 -3 -208 42 -922 70 -1215 47 -141 -11 -256 -29 -335
-51 -16 -5 -57 -14 -90 -20 -33 -6 -91 -22 -130 -34 -38 -13 -97 -31 -130 -41
-79 -23 -174 -61 -321 -127 -22 -10 -44 -18 -49 -18 -12 0 -338 -131 -350
-141 -6 -4 -33 -13 -60 -19 -27 -6 -63 -17 -80 -25 -16 -8 -64 -25 -105 -39
-112 -37 -215 -83 -340 -151 -56 -30 -167 -83 -190 -90 -14 -4 -83 -35 -155
-69 -71 -35 -191 -89 -265 -120 -164 -70 -345 -159 -355 -176 -3 -5 -13 -7
-23 -5 -9 2 -34 7 -54 10 -45 7 -47 17 -12 40 21 14 28 14 42 3 15 -11 15 -11
5 3 -11 13 0 22 85 64 127 62 173 79 183 64 4 -7 9 -8 13 -1 3 6 0 12 -6 15
-8 3 -6 7 7 12 11 5 92 43 180 85 88 42 176 84 195 92 19 9 60 27 91 41 31 14
75 31 97 38 23 7 42 15 42 19 0 11 88 42 100 35 6 -4 9 -1 8 7 -2 7 4 13 12
13 8 0 17 3 20 6 3 3 41 23 85 44 44 21 117 55 162 77 69 32 86 37 105 28 21
-10 22 -10 5 4 -17 13 -13 16 55 35 40 12 107 39 150 61 42 22 83 40 92 40 9
0 16 4 16 10 0 5 18 14 40 20 21 6 42 14 44 19 3 5 21 12 40 15 19 4 39 13 46
21 6 8 32 17 56 21 24 3 44 10 44 15 0 5 8 9 18 9 9 1 42 10 72 21 66 24 138
45 202 60 26 6 50 15 54 20 3 5 16 9 30 9 13 0 32 4 42 9 9 5 69 18 132 29 63
12 131 24 150 27 39 7 105 15 165 19 22 2 40 4 40 5 0 1 16 4 35 6 19 2 51 7
70 9 19 3 91 8 160 12 69 4 127 8 129 10 12 10 330 2 431 -11z m1942 -198 c28
-44 29 -49 15 -65 -15 -16 -14 -23 5 -76 18 -47 19 -62 10 -77 -9 -14 -10 -25
-2 -40 20 -36 8 -82 -27 -104 -20 -12 -34 -32 -39 -50 -7 -33 -31 -65 -48 -65
-7 0 -29 -9 -51 -20 -22 -11 -45 -20 -53 -20 -8 0 -40 26 -72 58 l-59 57 44
87 c39 76 79 178 151 386 l18 52 39 -37 c21 -21 52 -60 69 -86z m-1357 83 c18
-8 17 -9 -7 -9 -16 -1 -28 4 -28 9 0 12 8 12 35 0z m-4198 -1076 c-3 -3 -12
-4 -19 -1 -8 3 -5 6 6 6 11 1 17 -2 13 -5z m650 -88 c4 -4 -115 -374 -123
-385 -2 -2 -13 4 -24 14 -18 16 -23 17 -45 5 -30 -16 -41 -6 -83 83 -27 58
-27 58 -64 53 l-37 -6 -3 72 c-3 72 -3 72 -34 81 l-32 9 29 42 30 42 192 -4
c106 -2 193 -5 194 -6z m592 -15 c11 -7 13 -28 7 -103 -8 -109 -38 -221 -70
-261 -21 -26 -25 -28 -45 -16 -56 36 -33 223 47 367 13 23 37 28 61 13z m4081
-40 c0 -5 6 -16 13 -23 14 -14 79 -186 99 -261 13 -51 5 -79 -25 -85 -22 -4
-101 70 -133 127 -22 38 -27 60 -29 126 -2 68 1 83 18 103 20 22 57 30 57 13z
m-1793 -99 c20 -48 15 -272 -8 -317 -18 -37 -45 -39 -70 -5 -15 21 -19 49 -21
190 l-3 164 24 12 c33 17 59 2 78 -44z m316 6 c24 -67 83 -288 122 -458 19
-85 53 -222 75 -305 36 -137 54 -212 95 -395 20 -89 52 -328 57 -420 l3 -75
-62 -5 c-34 -3 -66 -9 -72 -15 -5 -5 -12 -35 -15 -65 -8 -68 7 -103 49 -110
l30 -5 5 -190 c6 -214 16 -261 70 -332 67 -89 199 -129 293 -89 79 33 161 159
173 266 4 36 10 67 14 70 11 7 60 169 60 196 0 12 4 34 10 48 9 24 11 25 79
19 63 -5 71 -4 77 13 11 28 42 66 47 57 2 -4 17 -55 31 -112 22 -81 25 -109
17 -130 -17 -43 -38 -139 -60 -270 -23 -133 -26 -304 -12 -510 8 -109 7 -116
-19 -192 -26 -72 -27 -81 -13 -95 23 -23 4 -52 -95 -142 -156 -142 -210 -170
-507 -258 -191 -56 -422 -97 -644 -114 -73 -6 -138 -13 -142 -16 -14 -8 -10
-228 6 -348 10 -75 11 -113 4 -122 -18 -22 -108 -37 -178 -30 -36 3 -120 20
-186 37 -66 17 -147 37 -181 44 -86 20 -267 82 -352 122 -59 27 -72 38 -67 51
25 62 47 149 57 226 l12 89 -27 21 c-14 11 -54 32 -89 45 -93 36 -177 79 -229
117 l-46 33 -12 198 c-7 109 -17 261 -22 338 -14 196 -28 495 -30 655 l-1 135
96 3 96 3 0 -31 c0 -62 30 -228 50 -272 22 -51 94 -123 145 -144 55 -23 199
-19 252 7 87 42 145 141 170 290 14 89 15 115 4 202 -8 62 -9 103 -3 109 5 5
26 8 47 6 l38 -3 -2 -81 c-2 -77 -1 -82 21 -89 13 -4 120 -10 239 -12 l216 -5
28 53 c122 231 229 756 269 1324 13 172 12 227 -8 613 -2 50 -3 92 -2 92 2 0
10 -19 19 -42z m-1219 16 c10 -26 7 -81 -10 -187 -13 -82 -20 -104 -41 -123
-55 -51 -79 -18 -64 91 24 167 48 235 84 235 14 0 28 -7 31 -16z m2302 -48
c75 -113 83 -261 14 -261 -20 0 -29 13 -62 88 -43 96 -57 172 -39 205 20 37
48 27 87 -32z m-319 -48 c-3 -8 -6 -5 -6 6 -1 11 2 17 5 13 3 -3 4 -12 1 -19z
m-1513 -975 c5 -174 -6 -579 -17 -589 -2 -3 -36 -1 -76 2 -75 7 -79 11 -61 59
6 15 17 64 25 108 8 45 24 127 35 182 35 168 70 368 70 403 0 17 4 32 8 32 5
0 12 -89 16 -197z m1331 -28 c24 -81 93 -375 104 -440 5 -33 13 -75 17 -92 l7
-33 -92 0 -92 0 6 188 c3 103 8 252 10 332 2 80 5 147 5 150 2 5 11 -23 35
-105z m32 83 c-3 -8 -6 -5 -6 6 -1 11 2 17 5 13 3 -3 4 -12 1 -19z m383 -225
c11 -59 29 -157 40 -218 12 -60 28 -143 35 -183 8 -40 17 -77 20 -82 9 -14 -1
-13 -85 13 l-75 23 3 74 c2 41 7 113 12 160 5 47 12 140 16 208 4 67 9 120 11
118 3 -2 13 -53 23 -113z m-3626 -687 c25 -10 35 -22 40 -46 14 -71 3 -87 -35
-51 -34 32 -120 74 -130 64 -6 -6 16 -26 58 -54 113 -74 108 -50 108 -501 0
-212 -3 -389 -7 -393 -13 -13 -93 39 -158 103 -114 113 -157 187 -201 347 -19
69 -21 96 -16 195 4 82 11 129 25 160 24 56 103 145 151 170 43 23 118 26 165
6z m4784 -39 c-7 -14 -13 -17 -16 -9 -6 19 6 44 18 37 7 -4 6 -14 -2 -28z
m-5153 -1547 c-3 -5 -12 -10 -18 -10 -7 0 -6 4 3 10 19 12 23 12 15 0z"/>
<path d="M5421 6667 c-8 -10 -7 -14 2 -14 8 0 14 6 14 14 0 7 -1 13 -2 13 -2
0 -8 -6 -14 -13z"/>
<path d="M5314 2599 c-8 -14 21 -43 35 -35 19 12 13 46 -8 46 -11 0 -23 -5
-27 -11z"/>
<path d="M4055 1780 c-3 -5 0 -13 8 -16 23 -8 127 0 130 11 3 14 -129 19 -138
5z"/>
</g>
</svg>
